<?xml version="1.0" encoding="UTF-8" standalone="no"?>
<!DOCTYPE svg PUBLIC "-//W3C//DTD SVG 1.0//EN" "http://www.w3.org/TR/2001/PR-SVG-20010719/DTD/svg10.dtd">
<svg width="38cm" height="43cm" viewBox="539 77 746 841" xmlns="http://www.w3.org/2000/svg" xmlns:xlink="http://www.w3.org/1999/xlink">
  <g>
    <ellipse style="fill: #ffffff" cx="1114" cy="720" rx="6" ry="6"/>
    <ellipse style="fill: none; fill-opacity:0; stroke-width: 2; stroke: #000000" cx="1114" cy="720" rx="6" ry="6"/>
    <line style="fill: none; fill-opacity:0; stroke-width: 2; stroke: #000000" x1="1090" y1="732" x2="1138" y2="732"/>
    <line style="fill: none; fill-opacity:0; stroke-width: 2; stroke: #000000" x1="1114" y1="726" x2="1114" y2="756"/>
    <line style="fill: none; fill-opacity:0; stroke-width: 2; stroke: #000000" x1="1114" y1="756" x2="1090" y2="782"/>
    <line style="fill: none; fill-opacity:0; stroke-width: 2; stroke: #000000" x1="1114" y1="756" x2="1138" y2="782"/>
    <text font-size="12.8" style="fill: #000000;text-anchor:middle;font-family:sans-serif;font-style:normal;font-weight:normal" x="1114" y="805.9">
      <tspan x="1114" y="805.9">Użytkownik</tspan>
    </text>
  </g>
  <g>
    <ellipse style="fill: #ffffff" cx="614.674" cy="184.9" rx="6" ry="6"/>
    <ellipse style="fill: none; fill-opacity:0; stroke-width: 2; stroke: #000000" cx="614.674" cy="184.9" rx="6" ry="6"/>
    <line style="fill: none; fill-opacity:0; stroke-width: 2; stroke: #000000" x1="590.674" y1="196.9" x2="638.674" y2="196.9"/>
    <line style="fill: none; fill-opacity:0; stroke-width: 2; stroke: #000000" x1="614.674" y1="190.9" x2="614.674" y2="220.9"/>
    <line style="fill: none; fill-opacity:0; stroke-width: 2; stroke: #000000" x1="614.674" y1="220.9" x2="590.674" y2="246.9"/>
    <line style="fill: none; fill-opacity:0; stroke-width: 2; stroke: #000000" x1="614.674" y1="220.9" x2="638.674" y2="246.9"/>
    <text font-size="12.8" style="fill: #000000;text-anchor:middle;font-family:sans-serif;font-style:normal;font-weight:normal" x="614.674" y="270.8">
      <tspan x="614.674" y="270.8">Administrator</tspan>
    </text>
  </g>
  <g>
    <ellipse style="fill: #ff0000" cx="861.324" cy="99" rx="47.8" ry="20"/>
    <ellipse style="fill: none; fill-opacity:0; stroke-width: 2; stroke: #000000" cx="861.324" cy="99" rx="47.8" ry="20"/>
    <text font-size="12.8" style="fill: #000000;text-anchor:middle;font-family:sans-serif;font-style:normal;font-weight:normal" x="861.324" y="102.9">
      <tspan x="861.324" y="102.9">Zaloguj</tspan>
    </text>
  </g>
  <g>
    <ellipse style="fill: #1e90ff" cx="858.099" cy="222.225" rx="90.375" ry="30.125"/>
    <ellipse style="fill: none; fill-opacity:0; stroke-width: 2; stroke: #000000" cx="858.099" cy="222.225" rx="90.375" ry="30.125"/>
    <text font-size="12.8" style="fill: #000000;text-anchor:middle;font-family:sans-serif;font-style:normal;font-weight:normal" x="858.099" y="226.125">
      <tspan x="858.099" y="226.125">Zarządzaj księgarnią</tspan>
    </text>
  </g>
  <g>
    <ellipse style="fill: #d8e5e5" cx="662.374" cy="423.983" rx="95.65" ry="31.8833"/>
    <ellipse style="fill: none; fill-opacity:0; stroke-width: 2; stroke: #000000" cx="662.374" cy="423.983" rx="95.65" ry="31.8833"/>
    <text font-size="12.8" style="fill: #000000;text-anchor:middle;font-family:sans-serif;font-style:normal;font-weight:normal" x="662.374" y="427.883">
      <tspan x="662.374" y="427.883">Zarządzaj kategoriami</tspan>
    </text>
  </g>
  <g>
    <ellipse style="fill: #d8e5e5" cx="858.674" cy="469.75" rx="88.95" ry="29.65"/>
    <ellipse style="fill: none; fill-opacity:0; stroke-width: 2; stroke: #000000" cx="858.674" cy="469.75" rx="88.95" ry="29.65"/>
    <text font-size="12.8" style="fill: #000000;text-anchor:middle;font-family:sans-serif;font-style:normal;font-weight:normal" x="858.674" y="473.65">
      <tspan x="858.674" y="473.65">Zarządzaj książkami</tspan>
    </text>
  </g>
  <g>
    <ellipse style="fill: #d8e5e5" cx="1170.67" cy="220.083" rx="113.95" ry="37.9833"/>
    <ellipse style="fill: none; fill-opacity:0; stroke-width: 2; stroke: #000000" cx="1170.67" cy="220.083" rx="113.95" ry="37.9833"/>
    <text font-size="12.8" style="fill: #000000;text-anchor:middle;font-family:sans-serif;font-style:normal;font-weight:normal" x="1170.67" y="223.983">
      <tspan x="1170.67" y="223.983">Moderuj wpisy i komentarze</tspan>
    </text>
  </g>
  <g>
    <ellipse style="fill: #d8e5e5" cx="1056.82" cy="408.767" rx="86.3" ry="28.7667"/>
    <ellipse style="fill: none; fill-opacity:0; stroke-width: 2; stroke: #000000" cx="1056.82" cy="408.767" rx="86.3" ry="28.7667"/>
    <text font-size="12.8" style="fill: #000000;text-anchor:middle;font-family:sans-serif;font-style:normal;font-weight:normal" x="1056.82" y="412.667">
      <tspan x="1056.82" y="412.667">Zarządzaj autorami</tspan>
    </text>
  </g>
  <g>
    <line style="fill: none; fill-opacity:0; stroke-width: 2; stroke-dasharray: 20; stroke: #000000" x1="694.276" y1="391.098" x2="821.311" y2="260.147"/>
    <polygon style="fill: #000000" points="826.533,254.764 823.159,265.423 821.311,260.147 815.982,258.46 "/>
    <polygon style="fill: none; fill-opacity:0; stroke-width: 2; stroke: #000000" points="826.533,254.764 823.159,265.423 821.311,260.147 815.982,258.46 "/>
  </g>
  <g>
    <line style="fill: none; fill-opacity:0; stroke-width: 2; stroke-dasharray: 20; stroke: #000000" x1="858.603" y1="439.096" x2="858.194" y2="263.091"/>
    <polygon style="fill: #000000" points="858.177,255.591 863.2,265.579 858.194,263.091 853.2,265.602 "/>
    <polygon style="fill: none; fill-opacity:0; stroke-width: 2; stroke: #000000" points="858.177,255.591 863.2,265.579 858.194,263.091 853.2,265.602 "/>
  </g>
  <g>
    <line style="fill: none; fill-opacity:0; stroke-width: 2; stroke-dasharray: 20; stroke: #000000" x1="1025.14" y1="379.027" x2="898.347" y2="260.005"/>
    <polygon style="fill: #000000" points="892.878,254.872 903.592,258.071 898.347,260.005 896.747,265.362 "/>
    <polygon style="fill: none; fill-opacity:0; stroke-width: 2; stroke: #000000" points="892.878,254.872 903.592,258.071 898.347,260.005 896.747,265.362 "/>
  </g>
  <text font-size="12.8" style="fill: #000000;text-anchor:start;font-family:sans-serif;font-style:normal;font-weight:normal" x="962.524" y="206">
    <tspan x="962.524" y="206">&lt;&lt;extends&gt;&gt;</tspan>
  </text>
  <text font-size="12.8" style="fill: #000000;text-anchor:start;font-family:sans-serif;font-style:normal;font-weight:normal" x="875.726" y="367.8">
    <tspan x="875.726" y="367.8">&lt;&lt;extends&gt;&gt;</tspan>
  </text>
  <text font-size="12.8" style="fill: #000000;text-anchor:start;font-family:sans-serif;font-style:normal;font-weight:normal" x="964.926" y="298.7">
    <tspan x="964.926" y="298.7">&lt;&lt;extends&gt;&gt;</tspan>
    <tspan x="964.926" y="314.7"></tspan>
  </text>
  <g>
    <line style="fill: none; fill-opacity:0; stroke-width: 2; stroke-dasharray: 20; stroke: #000000" x1="1055.73" y1="220.871" x2="959.2" y2="221.532"/>
    <polygon style="fill: #000000" points="951.7,221.584 961.665,216.515 959.2,221.532 961.734,226.515 "/>
    <polygon style="fill: none; fill-opacity:0; stroke-width: 2; stroke: #000000" points="951.7,221.584 961.665,216.515 959.2,221.532 961.734,226.515 "/>
  </g>
  <text font-size="12.8" style="fill: #000000;text-anchor:start;font-family:sans-serif;font-style:normal;font-weight:normal" x="643.726" y="326.8">
    <tspan x="643.726" y="326.8">&lt;&lt;extends&gt;&gt;</tspan>
  </text>
  <g>
    <line style="fill: none; fill-opacity:0; stroke-width: 2; stroke-dasharray: 20; stroke: #000000" x1="858.914" y1="191.103" x2="860.52" y2="129.739"/>
    <polygon style="fill: #000000" points="860.716,122.242 865.452,132.369 860.52,129.739 855.456,132.107 "/>
    <polygon style="fill: none; fill-opacity:0; stroke-width: 2; stroke: #000000" points="860.716,122.242 865.452,132.369 860.52,129.739 855.456,132.107 "/>
  </g>
  <text font-size="12.8" style="fill: #000000;text-anchor:start;font-family:sans-serif;font-style:normal;font-weight:normal" x="749.724" y="166.8">
    <tspan x="749.724" y="166.8">&lt;&lt;include&gt;&gt;</tspan>
  </text>
  <line style="fill: none; fill-opacity:0; stroke-width: 2; stroke: #000000" x1="658.273" y1="221.137" x2="766.718" y2="221.728"/>
  <g>
    <ellipse style="fill: #bfbfbf" cx="818.199" cy="726.225" rx="78.675" ry="26.225"/>
    <ellipse style="fill: none; fill-opacity:0; stroke-width: 2; stroke: #000000" cx="818.199" cy="726.225" rx="78.675" ry="26.225"/>
    <text font-size="12.8" style="fill: #000000;text-anchor:middle;font-family:sans-serif;font-style:normal;font-weight:normal" x="818.199" y="730.125">
      <tspan x="818.199" y="730.125">Dodaj komentarz</tspan>
    </text>
  </g>
  <g>
    <ellipse style="fill: #bfbfbf" cx="830.774" cy="808.25" rx="64.05" ry="21.35"/>
    <ellipse style="fill: none; fill-opacity:0; stroke-width: 2; stroke: #000000" cx="830.774" cy="808.25" rx="64.05" ry="21.35"/>
    <text font-size="12.8" style="fill: #000000;text-anchor:middle;font-family:sans-serif;font-style:normal;font-weight:normal" x="830.774" y="812.15">
      <tspan x="830.774" y="812.15">Dodaj ocenę</tspan>
    </text>
  </g>
  <g>
    <ellipse style="fill: #bfbfbf" cx="822.676" cy="897.383" rx="61.75" ry="20.5833"/>
    <ellipse style="fill: none; fill-opacity:0; stroke-width: 2; stroke: #000000" cx="822.676" cy="897.383" rx="61.75" ry="20.5833"/>
    <text font-size="12.8" style="fill: #000000;text-anchor:middle;font-family:sans-serif;font-style:normal;font-weight:normal" x="822.676" y="901.283">
      <tspan x="822.676" y="901.283">Kup książkę</tspan>
    </text>
  </g>
  <g>
    <ellipse style="fill: #ff0000" cx="588.526" cy="808.9" rx="47.8" ry="20"/>
    <ellipse style="fill: none; fill-opacity:0; stroke-width: 2; stroke: #000000" cx="588.526" cy="808.9" rx="47.8" ry="20"/>
    <text font-size="12.8" style="fill: #000000;text-anchor:middle;font-family:sans-serif;font-style:normal;font-weight:normal" x="588.526" y="812.8">
      <tspan x="588.526" y="812.8">Zaloguj</tspan>
    </text>
  </g>
  <g>
    <ellipse style="fill: #ff9494" cx="725.351" cy="596.775" rx="83.625" ry="27.875"/>
    <ellipse style="fill: none; fill-opacity:0; stroke-width: 2; stroke: #000000" cx="725.351" cy="596.775" rx="83.625" ry="27.875"/>
    <text font-size="12.8" style="fill: #000000;text-anchor:middle;font-family:sans-serif;font-style:normal;font-weight:normal" x="725.351" y="600.675">
      <tspan x="725.351" y="600.675">Dokonaj rejestracji</tspan>
    </text>
  </g>
  <g>
    <line style="fill: none; fill-opacity:0; stroke-width: 2; stroke-dasharray: 20; stroke: #000000" x1="602.063" y1="787.913" x2="701.446" y2="633.835"/>
    <polygon style="fill: #000000" points="705.512,627.533 704.293,638.646 701.446,633.835 695.89,633.226 "/>
    <polygon style="fill: none; fill-opacity:0; stroke-width: 2; stroke: #000000" points="705.512,627.533 704.293,638.646 701.446,633.835 695.89,633.226 "/>
  </g>
  <text font-size="12.8" style="fill: #000000;text-anchor:start;font-family:sans-serif;font-style:normal;font-weight:normal" x="566.726" y="685.8">
    <tspan x="566.726" y="685.8">&lt;&lt;extends&gt;&gt;</tspan>
  </text>
  <line style="fill: none; fill-opacity:0; stroke-width: 2; stroke: #000000" x1="1077.54" y1="741.063" x2="795.803" y2="625.638"/>
  <g>
    <line style="fill: none; fill-opacity:0; stroke-width: 2; stroke-dasharray: 20; stroke: #000000" x1="742.585" y1="753.444" x2="646.484" y2="788.037"/>
    <polygon style="fill: #000000" points="639.427,790.577 647.143,782.486 646.484,788.037 650.529,791.895 "/>
    <polygon style="fill: none; fill-opacity:0; stroke-width: 2; stroke: #000000" points="639.427,790.577 647.143,782.486 646.484,788.037 650.529,791.895 "/>
  </g>
  <g>
    <line style="fill: none; fill-opacity:0; stroke-width: 2; stroke-dasharray: 20; stroke: #000000" x1="765.835" y1="808.424" x2="647.062" y2="808.743"/>
    <polygon style="fill: #000000" points="639.562,808.763 649.549,803.736 647.062,808.743 649.575,813.736 "/>
    <polygon style="fill: none; fill-opacity:0; stroke-width: 2; stroke: #000000" points="639.562,808.763 649.549,803.736 647.062,808.743 649.575,813.736 "/>
  </g>
  <g>
    <line style="fill: none; fill-opacity:0; stroke-width: 2; stroke-dasharray: 20; stroke: #000000" x1="765.739" y1="875.867" x2="646.396" y2="830.768"/>
    <polygon style="fill: #000000" points="639.38,828.117 650.502,826.975 646.396,830.768 646.967,836.329 "/>
    <polygon style="fill: none; fill-opacity:0; stroke-width: 2; stroke: #000000" points="639.38,828.117 650.502,826.975 646.396,830.768 646.967,836.329 "/>
  </g>
  <line style="fill: none; fill-opacity:0; stroke-width: 2; stroke: #000000" x1="1077.52" y1="752.328" x2="897.872" y2="734.245"/>
  <line style="fill: none; fill-opacity:0; stroke-width: 2; stroke: #000000" x1="1077.54" y1="762.726" x2="895.807" y2="796.253"/>
  <line style="fill: none; fill-opacity:0; stroke-width: 2; stroke: #000000" x1="1077.55" y1="773.69" x2="867.146" y2="875.801"/>
  <text font-size="12.8" style="fill: #000000;text-anchor:start;font-family:sans-serif;font-style:normal;font-weight:normal" x="647.726" y="747.05">
    <tspan x="647.726" y="747.05">&lt;&lt;include&gt;&gt;</tspan>
  </text>
  <text font-size="12.8" style="fill: #000000;text-anchor:start;font-family:sans-serif;font-style:normal;font-weight:normal" x="678.926" y="793.95">
    <tspan x="678.926" y="793.95">&lt;&lt;include&gt;&gt;</tspan>
  </text>
  <text font-size="12.8" style="fill: #000000;text-anchor:start;font-family:sans-serif;font-style:normal;font-weight:normal" x="727.126" y="853.85">
    <tspan x="727.126" y="853.85">&lt;&lt;include&gt;&gt;</tspan>
  </text>
</svg>
